<svg width="64" height="64" xmlns="http://www.w3.org/2000/svg" xmlns:xlink="http://www.w3.org/1999/xlink"><defs><filter x="-12.1%" y="-13.2%" width="124.1%" height="136.8%" filterUnits="objectBoundingBox" id="a"><feOffset dy="1" in="SourceAlpha" result="shadowOffsetOuter1"/><feGaussianBlur stdDeviation="1" in="shadowOffsetOuter1" result="shadowBlurOuter1"/><feComposite in="shadowBlurOuter1" in2="SourceAlpha" operator="out" result="shadowBlurOuter1"/><feColorMatrix values="0 0 0 0 0.062745098 0 0 0 0 0.11372549 0 0 0 0 0.176470588 0 0 0 0.12 0" in="shadowBlurOuter1"/></filter><filter x="-12.1%" y="-13.2%" width="124.1%" height="136.8%" filterUnits="objectBoundingBox" id="c"><feOffset dy="1" in="SourceAlpha" result="shadowOffsetOuter1"/><feGaussianBlur stdDeviation="1" in="shadowOffsetOuter1" result="shadowBlurOuter1"/><feColorMatrix values="0 0 0 0 0.062745098 0 0 0 0 0.11372549 0 0 0 0 0.176470588 0 0 0 0.12 0" in="shadowBlurOuter1"/></filter><path d="M46 23H19c-.552 0-1 .424-1 .947v17.106c0 .523.448.947 1 .947h27c.552 0 1-.424 1-.947V23.947c0-.523-.448-.947-1-.947z" id="b"/><path d="M46 23H19c-.552 0-1 .424-1 .947v17.106c0 .523.448.947 1 .947h27c.552 0 1-.424 1-.947V23.947c0-.523-.448-.947-1-.947z" id="d"/><linearGradient x1="50%" y1="0%" x2="50%" y2="100%" id="e"><stop stop-color="#FFF" offset="0%"/><stop stop-color="#E2EEFF" offset="100%"/></linearGradient></defs><g fill-rule="nonzero" fill="none"><g transform="rotate(25 32.5 32.5)"><use fill="#000" filter="url(#a)" xlink:href="#b"/><use fill-opacity=".64" fill="#E2EEFF" xlink:href="#b"/></g><g><use fill="#000" filter="url(#c)" xlink:href="#d"/><use fill="url(#e)" xlink:href="#d"/></g><path d="M32.5 36a3.5 3.5 0 110-7 3.5 3.5 0 010 7z" fill-opacity=".64" fill="#5091EE"/></g></svg>