<svg width="64" height="64" xmlns="http://www.w3.org/2000/svg" xmlns:xlink="http://www.w3.org/1999/xlink"><defs><filter x="-14.6%" y="-11.4%" width="129.2%" height="132%" filterUnits="objectBoundingBox" id="a"><feOffset dy="1" in="SourceAlpha" result="shadowOffsetOuter1"/><feGaussianBlur stdDeviation="1" in="shadowOffsetOuter1" result="shadowBlurOuter1"/><feColorMatrix values="0 0 0 0 0.062745098 0 0 0 0 0.11372549 0 0 0 0 0.176470588 0 0 0 0.12 0" in="shadowBlurOuter1"/></filter><filter x="-29.2%" y="-20.8%" width="158.3%" height="158.3%" filterUnits="objectBoundingBox" id="d"><feOffset dy="1" in="SourceAlpha" result="shadowOffsetOuter1"/><feGaussianBlur stdDeviation="1" in="shadowOffsetOuter1" result="shadowBlurOuter1"/><feComposite in="shadowBlurOuter1" in2="SourceAlpha" operator="out" result="shadowBlurOuter1"/><feColorMatrix values="0 0 0 0 0.062745098 0 0 0 0 0.11372549 0 0 0 0 0.176470588 0 0 0 0.12 0" in="shadowBlurOuter1"/></filter><path d="M41.95 24.051A6.957 6.957 0 0037 22a6.956 6.956 0 00-5 2.102l-.05-.051A6.957 6.957 0 0027 22c-1.87 0-3.627.729-4.95 2.051A6.948 6.948 0 0020 29c0 1.87.728 3.627 2.05 4.949l9.95 9.95 9.95-9.95A6.952 6.952 0 0044 29a6.954 6.954 0 00-2.05-4.949z" id="b"/><path d="M36 33a6 6 0 100 12 6 6 0 000-12z" id="e"/><linearGradient x1="50%" y1="0%" x2="50%" y2="100%" id="c"><stop stop-color="#FFF" offset="0%"/><stop stop-color="#E2EEFF" offset="100%"/></linearGradient></defs><g fill-rule="nonzero" fill="none"><g><use fill="#000" filter="url(#a)" xlink:href="#b"/><use fill="url(#c)" xlink:href="#b"/></g><g><use fill="#000" filter="url(#d)" xlink:href="#e"/><use fill-opacity=".64" fill="#E2EEFF" xlink:href="#e"/></g></g></svg>