<svg width="1440" height="224" xmlns="http://www.w3.org/2000/svg"><path d="M1187 204h4v-4h-4v4zm0-20h4v-4h-4v4zm0-20h4v-4h-4v4zm0-20h4v-4h-4v4zm0-20h4v-4h-4v4zm0-20h4v-4h-4v4zm0-20h4v-4h-4v4zm0-20h4v-4h-4v4zm0-20h4v-4h-4v4zm0-20h4v-4h-4v4zm0-20h4V0h-4v4zm-20 200h4v-4h-4v4zm0-20h4v-4h-4v4zm0-20h4v-4h-4v4zm0-20h4v-4h-4v4zm0-20h4v-4h-4v4zm0-20h4v-4h-4v4zm0-20h4v-4h-4v4zm0-20h4v-4h-4v4zm0-20h4v-4h-4v4zm0-20h4v-4h-4v4zm0-20h4V0h-4v4zm40 200h4v-4h-4v4zm0-20h4v-4h-4v4zm0-20h4v-4h-4v4zm0-20h4v-4h-4v4zm0-20h4v-4h-4v4zm0-20h4v-4h-4v4zm0-20h4v-4h-4v4zm0-20h4v-4h-4v4zm0-20h4v-4h-4v4zm0-20h4v-4h-4v4zm0-20h4V0h-4v4zm20 220h4v-4h-4v4zm0-20h4v-4h-4v4zm0-20h4v-4h-4v4zm0-20h4v-4h-4v4zm0-20h4v-4h-4v4zm0-20h4v-4h-4v4zm0-20h4v-4h-4v4zm0-20h4v-4h-4v4zm0-20h4v-4h-4v4zm0-20h4v-4h-4v4zm0-20h4v-4h-4v4zm0-20h4V0h-4v4zm20 220h4v-4h-4v4zm0-20h4v-4h-4v4zm0-20h4v-4h-4v4zm0-20h4v-4h-4v4zm0-20h4v-4h-4v4zm0-20h4v-4h-4v4zm0-20h4v-4h-4v4zm0-20h4v-4h-4v4zm0-20h4v-4h-4v4zm0-20h4v-4h-4v4zm0-20h4v-4h-4v4zm0-20h4V0h-4v4zm20 220h4v-4h-4v4zm0-20h4v-4h-4v4zm0-20h4v-4h-4v4zm0-20h4v-4h-4v4zm0-20h4v-4h-4v4zm0-20h4v-4h-4v4zm0-20h4v-4h-4v4zm0-20h4v-4h-4v4zm0-20h4v-4h-4v4zm0-20h4v-4h-4v4zm0-20h4v-4h-4v4zm0-20h4V0h-4v4zm20 220h4v-4h-4v4zm0-20h4v-4h-4v4zm0-20h4v-4h-4v4zm0-20h4v-4h-4v4zm0-20h4v-4h-4v4zm0-20h4v-4h-4v4zm0-20h4v-4h-4v4zm0-20h4v-4h-4v4zm0-20h4v-4h-4v4zm0-20h4v-4h-4v4zm0-20h4v-4h-4v4zm0-20h4V0h-4v4zm20 220h4v-4h-4v4zm0-20h4v-4h-4v4zm0-20h4v-4h-4v4zm0-20h4v-4h-4v4zm0-20h4v-4h-4v4zm0-20h4v-4h-4v4zm0-20h4v-4h-4v4zm0-20h4v-4h-4v4zm0-20h4v-4h-4v4zm0-20h4v-4h-4v4zm0-20h4v-4h-4v4zm0-20h4V0h-4v4z" fill="#2BBF96" fill-rule="evenodd"/></svg>