<svg width="64" height="64" xmlns="http://www.w3.org/2000/svg" xmlns:xlink="http://www.w3.org/1999/xlink"><defs><filter x="-58.3%" y="-17.9%" width="216.7%" height="150%" filterUnits="objectBoundingBox" id="a"><feOffset dy="1" in="SourceAlpha" result="shadowOffsetOuter1"/><feGaussianBlur stdDeviation="1" in="shadowOffsetOuter1" result="shadowBlurOuter1"/><feComposite in="shadowBlurOuter1" in2="SourceAlpha" operator="out" result="shadowBlurOuter1"/><feColorMatrix values="0 0 0 0 0.062745098 0 0 0 0 0.11372549 0 0 0 0 0.176470588 0 0 0 0.12 0" in="shadowBlurOuter1"/></filter><filter x="-19.4%" y="-10.9%" width="138.9%" height="130.4%" filterUnits="objectBoundingBox" id="c"><feOffset dy="1" in="SourceAlpha" result="shadowOffsetOuter1"/><feGaussianBlur stdDeviation="1" in="shadowOffsetOuter1" result="shadowBlurOuter1"/><feColorMatrix values="0 0 0 0 0.062745098 0 0 0 0 0.11372549 0 0 0 0 0.176470588 0 0 0 0.12 0" in="shadowBlurOuter1"/></filter><path d="M27 29h-4a1 1 0 00-1 1v12a1 1 0 001 1h5V30a1 1 0 00-1-1z" id="b"/><path d="M43.882 28.133A2.986 2.986 0 0043 28h-6v-3c0-3.824-2.589-4.942-3.958-5A1 1 0 0032 21v4.638l-4 4.8V43h12.23a2.985 2.985 0 002.87-2.118l2.769-9a3 3 0 00-1.987-3.749z" id="d"/><linearGradient x1="50%" y1="0%" x2="50%" y2="100%" id="e"><stop stop-color="#FFF" offset="0%"/><stop stop-color="#E2EEFF" offset="100%"/></linearGradient></defs><g fill-rule="nonzero" fill="none"><g><use fill="#000" filter="url(#a)" xlink:href="#b"/><use fill-opacity=".64" fill="#E2EEFF" xlink:href="#b"/></g><g><use fill="#000" filter="url(#c)" xlink:href="#d"/><use fill="url(#e)" xlink:href="#d"/></g></g></svg>