<svg width="1056" height="792" xmlns="http://www.w3.org/2000/svg"><g fill="none" fill-rule="evenodd"><path d="M237 445h4v4h-4v-4zm0 20h4v4h-4v-4zm0 20h4v4h-4v-4zm0 20h4v4h-4v-4zm0 20h4v4h-4v-4zm0 20h4v4h-4v-4zm0 20h4v4h-4v-4zm0 20h4v4h-4v-4zm0 20h4v4h-4v-4zm0 20h4v4h-4v-4zm0 20h4v4h-4v-4zm-20-200h4v4h-4v-4zm0 20h4v4h-4v-4zm0 20h4v4h-4v-4zm0 20h4v4h-4v-4zm0 20h4v4h-4v-4zm0 20h4v4h-4v-4zm0 20h4v4h-4v-4zm0 20h4v4h-4v-4zm0 20h4v4h-4v-4zm0 20h4v4h-4v-4zm0 20h4v4h-4v-4zm40-200h4v4h-4v-4zm0 20h4v4h-4v-4zm0 20h4v4h-4v-4zm0 20h4v4h-4v-4zm0 20h4v4h-4v-4zm0 20h4v4h-4v-4zm0 20h4v4h-4v-4zm0 20h4v4h-4v-4zm0 20h4v4h-4v-4zm0 20h4v4h-4v-4zm0 20h4v4h-4v-4zm20-220h4v4h-4v-4zm0 20h4v4h-4v-4zm0 20h4v4h-4v-4zm0 20h4v4h-4v-4zm0 20h4v4h-4v-4zm0 20h4v4h-4v-4zm0 20h4v4h-4v-4zm0 20h4v4h-4v-4zm0 20h4v4h-4v-4zm0 20h4v4h-4v-4zm0 20h4v4h-4v-4zm0 20h4v4h-4v-4zm20-220h4v4h-4v-4zm0 20h4v4h-4v-4zm0 20h4v4h-4v-4zm0 20h4v4h-4v-4zm0 20h4v4h-4v-4zm0 20h4v4h-4v-4zm0 20h4v4h-4v-4zm0 20h4v4h-4v-4zm0 20h4v4h-4v-4zm0 20h4v4h-4v-4zm0 20h4v4h-4v-4zm0 20h4v4h-4v-4zm20-220h4v4h-4v-4zm0 20h4v4h-4v-4zm0 20h4v4h-4v-4zm0 20h4v4h-4v-4zm0 20h4v4h-4v-4zm0 20h4v4h-4v-4zm0 20h4v4h-4v-4zm0 20h4v4h-4v-4zm0 20h4v4h-4v-4zm0 20h4v4h-4v-4zm0 20h4v4h-4v-4zm0 20h4v4h-4v-4zm20-220h4v4h-4v-4zm0 20h4v4h-4v-4zm0 20h4v4h-4v-4zm0 20h4v4h-4v-4zm0 20h4v4h-4v-4zm0 20h4v4h-4v-4zm0 20h4v4h-4v-4zm0 20h4v4h-4v-4zm0 20h4v4h-4v-4zm0 20h4v4h-4v-4zm0 20h4v4h-4v-4zm0 20h4v4h-4v-4zm20-220h4v4h-4v-4zm0 20h4v4h-4v-4zm0 20h4v4h-4v-4zm0 20h4v4h-4v-4zm0 20h4v4h-4v-4zm0 20h4v4h-4v-4zm0 20h4v4h-4v-4zm0 20h4v4h-4v-4zm0 20h4v4h-4v-4zm0 20h4v4h-4v-4zm0 20h4v4h-4v-4zm0 20h4v4h-4v-4z" fill="#2BBF96"/><path stroke-opacity=".48" stroke="#58677A" stroke-width="2" d="M289 223h526v394H289z"/><path d="M763 396h4v4h-4v-4zm20 0h4v4h-4v-4zm20 0h4v4h-4v-4zm20 0h4v4h-4v-4zm20 0h4v4h-4v-4zm20 0h4v4h-4v-4zm-100-40h4v4h-4v-4zm20 0h4v4h-4v-4zm20 0h4v4h-4v-4zm20 0h4v4h-4v-4zm20 0h4v4h-4v-4zm20 0h4v4h-4v-4zm-100 20h4v4h-4v-4zm20 0h4v4h-4v-4zm20 0h4v4h-4v-4zm20 0h4v4h-4v-4zm20 0h4v4h-4v-4zm20 0h4v4h-4v-4zm-100 40h4v4h-4v-4zm20 0h4v4h-4v-4zm20 0h4v4h-4v-4zm20 0h4v4h-4v-4zm20 0h4v4h-4v-4zm20 0h4v4h-4v-4zm-100 20h4v4h-4v-4zm20 0h4v4h-4v-4zm20 0h4v4h-4v-4zm20 0h4v4h-4v-4zm20 0h4v4h-4v-4zm20 0h4v4h-4v-4zm-100 20h4v4h-4v-4zm20 0h4v4h-4v-4zm20 0h4v4h-4v-4zm20 0h4v4h-4v-4zm20 0h4v4h-4v-4zm20 0h4v4h-4v-4zm-100 20h4v4h-4v-4zm20 0h4v4h-4v-4zm20 0h4v4h-4v-4zm20 0h4v4h-4v-4zm20 0h4v4h-4v-4zm20 0h4v4h-4v-4zm-100 20h4v4h-4v-4zm20 0h4v4h-4v-4zm20 0h4v4h-4v-4zm20 0h4v4h-4v-4zm20 0h4v4h-4v-4zm20 0h4v4h-4v-4zm-100 20h4v4h-4v-4zm20 0h4v4h-4v-4zm20 0h4v4h-4v-4zm20 0h4v4h-4v-4zm20 0h4v4h-4v-4zm20 0h4v4h-4v-4z" fill-opacity=".64" fill="#95A4B4"/></g></svg>