<svg width="64" height="64" xmlns="http://www.w3.org/2000/svg" xmlns:xlink="http://www.w3.org/1999/xlink"><defs><filter x="-29.2%" y="-11.5%" width="158.3%" height="132.2%" filterUnits="objectBoundingBox" id="a"><feOffset dy="1" in="SourceAlpha" result="shadowOffsetOuter1"/><feGaussianBlur stdDeviation="1" in="shadowOffsetOuter1" result="shadowBlurOuter1"/><feColorMatrix values="0 0 0 0 0.062745098 0 0 0 0 0.11372549 0 0 0 0 0.176470588 0 0 0 0.12 0" in="shadowBlurOuter1"/></filter><filter x="-29.2%" y="-11.5%" width="158.3%" height="132.2%" filterUnits="objectBoundingBox" id="d"><feOffset dy="1" in="SourceAlpha" result="shadowOffsetOuter1"/><feGaussianBlur stdDeviation="1" in="shadowOffsetOuter1" result="shadowBlurOuter1"/><feComposite in="shadowBlurOuter1" in2="SourceAlpha" operator="out" result="shadowBlurOuter1"/><feColorMatrix values="0 0 0 0 0.062745098 0 0 0 0 0.11372549 0 0 0 0 0.176470588 0 0 0 0.12 0" in="shadowBlurOuter1"/></filter><path d="M32 24.691l-10.737-2.656a1.007 1.007 0 00-.87.17c-.247.19-.393.483-.393.795v17a1 1 0 00.737.965L32 43.764V24.691z" id="b"/><path d="M43.607 22.205a1.012 1.012 0 00-.87-.17L32 24.691v19.073l11.263-2.799A1 1 0 0044 40V23c0-.312-.146-.605-.393-.795z" id="e"/><linearGradient x1="50%" y1="0%" x2="50%" y2="100%" id="c"><stop stop-color="#FFF" offset="0%"/><stop stop-color="#E2EEFF" offset="100%"/></linearGradient></defs><g fill-rule="nonzero" fill="none"><g><use fill="#000" filter="url(#a)" xlink:href="#b"/><use fill="url(#c)" xlink:href="#b"/></g><g><use fill="#000" filter="url(#d)" xlink:href="#e"/><use fill-opacity=".64" fill="#E2EEFF" xlink:href="#e"/></g></g></svg>