<svg width="1440" height="104" xmlns="http://www.w3.org/2000/svg"><path d="M88 0h4v4h-4V0zm20 0h4v4h-4V0zm20 0h4v4h-4V0zm20 0h4v4h-4V0zm20 0h4v4h-4V0zm20 0h4v4h-4V0zM88 20h4v4h-4v-4zm20 0h4v4h-4v-4zm20 0h4v4h-4v-4zm20 0h4v4h-4v-4zm20 0h4v4h-4v-4zm20 0h4v4h-4v-4zM88 40h4v4h-4v-4zm20 0h4v4h-4v-4zm20 0h4v4h-4v-4zm20 0h4v4h-4v-4zm20 0h4v4h-4v-4zm20 0h4v4h-4v-4zM88 60h4v4h-4v-4zm20 0h4v4h-4v-4zm20 0h4v4h-4v-4zm20 0h4v4h-4v-4zm20 0h4v4h-4v-4zm20 0h4v4h-4v-4zM88 80h4v4h-4v-4zm20 0h4v4h-4v-4zm20 0h4v4h-4v-4zm20 0h4v4h-4v-4zm20 0h4v4h-4v-4zm20 0h4v4h-4v-4zm20 0h4v4h-4v-4zm20 0h4v4h-4v-4zM88 100h4v4h-4v-4zm20 0h4v4h-4v-4zm20 0h4v4h-4v-4zm20 0h4v4h-4v-4zm20 0h4v4h-4v-4zm20 0h4v4h-4v-4zm20 0h4v4h-4v-4zm20 0h4v4h-4v-4z" fill="#95A4B4" fill-rule="evenodd"/></svg>